<svg width="159" height="42" viewBox="0 0 159 42" fill="none" xmlns="http://www.w3.org/2000/svg">
<circle cx="21" cy="21" r="21" fill="#4B4DED"/>
<path d="M9.92 26.296C9.92 26.0933 10.2133 25.3413 10.8 24.04C11.3867 22.728 12.064 21.2293 12.832 19.544C13.6107 17.848 14.1387 16.6373 14.416 15.912L14.768 15C14.5973 14.744 14.4107 14.5147 14.208 14.312C14.5387 14.184 14.8533 14.12 15.152 14.12C15.824 14.12 16.3467 14.5467 16.72 15.4C16.9547 15.944 17.2693 17.16 17.664 19.048C17.6747 19.0693 17.6907 19.1387 17.712 19.256C17.7333 19.3733 17.84 19.9173 18.032 20.888C18.2347 21.848 18.3733 22.488 18.448 22.808C18.5227 23.1173 18.6507 23.5973 18.832 24.248C19.12 25.3467 19.4827 26.2 19.92 26.808C19.4187 27.1067 19.0027 27.256 18.672 27.256C18.352 27.256 18.1173 27.16 17.968 26.968C17.8293 26.7653 17.696 26.4613 17.568 26.056C17.4507 25.64 17.1947 24.4933 16.8 22.616C16.5653 22.9787 16.096 23.1707 15.392 23.192L12.544 23.304C11.936 24.9467 11.4933 26.3547 11.216 27.528C10.352 27.1653 9.92 26.7547 9.92 26.296ZM15.328 16.424C14.1013 19.336 13.3173 21.2293 12.976 22.104H16.688C16.1867 19.6613 15.7333 17.768 15.328 16.424ZM27.9925 21.976L27.9765 21.576L27.9445 21.176C28.1365 21.1547 28.3338 21.144 28.5365 21.144C29.0272 21.144 29.3685 21.2507 29.5605 21.464C29.7525 21.6667 29.8485 22.0187 29.8485 22.52C29.8485 25.7733 29.2992 28.312 28.2005 30.136C27.8165 30.7653 27.3152 31.2773 26.6965 31.672C26.0885 32.0667 25.3952 32.264 24.6165 32.264C23.5605 32.264 22.7658 31.976 22.2325 31.4C21.6992 30.8347 21.4325 30.2 21.4325 29.496C21.4325 28.8027 21.5872 28.2533 21.8965 27.848C22.2165 27.4533 22.6112 27.256 23.0805 27.256C23.3792 27.256 23.6565 27.3467 23.9125 27.528C23.4538 28.1573 23.2245 28.7813 23.2245 29.4C23.2245 30.6907 23.7418 31.336 24.7765 31.336C25.8112 31.336 26.5952 30.728 27.1285 29.512C27.6618 28.296 27.9765 26.6 28.0725 24.424C27.6885 25.1173 27.2085 25.6453 26.6325 26.008C26.0565 26.36 25.4538 26.536 24.8245 26.536C23.8218 26.536 22.9632 26.12 22.2485 25.288C21.5445 24.456 21.1925 23.2987 21.1925 21.816C21.1925 19.768 21.6885 17.9973 22.6805 16.504C23.1712 15.768 23.8005 15.1867 24.5685 14.76C25.3472 14.3227 26.2325 14.104 27.2245 14.104C28.2165 14.104 28.9685 14.376 29.4805 14.92C30.0032 15.4533 30.2645 16.104 30.2645 16.872C30.2645 17.6293 30.0405 18.2267 29.5925 18.664C29.1552 19.0907 28.6325 19.304 28.0245 19.304C27.1392 19.304 26.4725 18.9947 26.0245 18.376C26.3125 18.4507 26.5845 18.488 26.8405 18.488C27.4485 18.488 27.9232 18.3067 28.2645 17.944C28.6165 17.5813 28.7925 17.1653 28.7925 16.696C28.7925 16.216 28.6325 15.8213 28.3125 15.512C27.9925 15.192 27.5392 15.032 26.9525 15.032C26.1738 15.032 25.4645 15.3893 24.8245 16.104C24.1952 16.8187 23.7152 17.6827 23.3845 18.696C23.0645 19.7093 22.9045 20.7707 22.9045 21.88C22.9045 22.9787 23.1392 23.8427 23.6085 24.472C24.0885 25.1013 24.6752 25.416 25.3685 25.416C26.0618 25.416 26.6698 25.1067 27.1925 24.488C27.7258 23.8587 27.9925 23.0213 27.9925 21.976Z" fill="white"/>
<path d="M54.9 30.12C54.9 29.8667 55.2667 28.9267 56 27.3C56.7333 25.66 57.58 23.7867 58.54 21.68C59.5133 19.56 60.1733 18.0467 60.52 17.14L60.96 16C60.7467 15.68 60.5133 15.3933 60.26 15.14C60.6733 14.98 61.0667 14.9 61.44 14.9C62.28 14.9 62.9333 15.4333 63.4 16.5C63.6933 17.18 64.0867 18.7 64.58 21.06C64.5933 21.0867 64.6133 21.1733 64.64 21.32C64.6667 21.4667 64.8 22.1467 65.04 23.36C65.2933 24.56 65.4667 25.36 65.56 25.76C65.6533 26.1467 65.8133 26.7467 66.04 27.56C66.4 28.9333 66.8533 30 67.4 30.76C66.7733 31.1333 66.2533 31.32 65.84 31.32C65.44 31.32 65.1467 31.2 64.96 30.96C64.7867 30.7067 64.62 30.3267 64.46 29.82C64.3133 29.3 63.9933 27.8667 63.5 25.52C63.2067 25.9733 62.62 26.2133 61.74 26.24L58.18 26.38C57.42 28.4333 56.8667 30.1933 56.52 31.66C55.44 31.2067 54.9 30.6933 54.9 30.12ZM61.66 17.78C60.1267 21.42 59.1467 23.7867 58.72 24.88H63.36C62.7333 21.8267 62.1667 19.46 61.66 17.78ZM69.5306 29.54C69.5173 29.3267 69.5106 28.9867 69.5106 28.52C69.5106 28.04 69.7306 26.0133 70.1706 22.44C70.624 18.8667 70.8506 16.4133 70.8506 15.08C70.8506 13.7467 70.7706 12.88 70.6106 12.48C71.3573 12.76 71.884 13.1733 72.1906 13.72C72.4973 14.2667 72.6506 14.9267 72.6506 15.7C72.6506 16.4733 72.4573 18.4733 72.0706 21.7C71.684 24.9267 71.4906 27.5267 71.4906 29.5C71.4906 29.9267 71.5173 30.5267 71.5706 31.3C70.8373 31.2467 70.3173 31.0733 70.0106 30.78C69.7573 30.54 69.5973 30.1267 69.5306 29.54ZM80.5272 20.5C79.7272 20.5 79.0472 20.96 78.4872 21.88C77.9405 22.8 77.5739 23.88 77.3872 25.12H77.9472C78.6539 25.12 79.2672 25.02 79.7872 24.82C80.3072 24.62 80.7072 24.36 80.9872 24.04C81.5205 23.4267 81.7872 22.7333 81.7872 21.96C81.7872 21.52 81.6805 21.1667 81.4672 20.9C81.2672 20.6333 80.9539 20.5 80.5272 20.5ZM83.3472 28.6C82.7339 29.6 82.0605 30.3 81.3272 30.7C80.5939 31.1 79.7405 31.3 78.7672 31.3C77.8072 31.3 76.9672 30.8733 76.2472 30.02C75.5272 29.1667 75.1672 27.9667 75.1672 26.42C75.1672 24.66 75.6405 23.0867 76.5872 21.7C77.0539 21.0333 77.6605 20.4933 78.4072 20.08C79.1672 19.6667 80.0005 19.46 80.9072 19.46C82.9072 19.46 83.9072 20.4267 83.9072 22.36C83.9072 23.52 83.4539 24.4333 82.5472 25.1C81.6539 25.7533 80.6139 26.08 79.4272 26.08C78.6405 26.08 77.9339 26.0067 77.3072 25.86C77.2939 25.9933 77.2872 26.2 77.2872 26.48C77.2872 28.84 77.9872 30.02 79.3872 30.02C80.7072 30.02 81.7805 29.3667 82.6072 28.06C83.1005 28.1267 83.3472 28.3067 83.3472 28.6ZM93.867 31.6C92.9204 31.6 92.1137 31.1667 91.447 30.3C90.7937 29.4333 90.1604 28.2067 89.547 26.62C88.2004 28.1533 87.2404 29.8933 86.667 31.84C85.9337 31.0267 85.567 30.2933 85.567 29.64C85.567 29.16 85.8537 28.5867 86.427 27.92C87.0004 27.2533 87.8737 26.3667 89.047 25.26C88.9137 24.86 88.7937 24.5267 88.687 24.26C88.5804 23.9933 88.4737 23.72 88.367 23.44C88.2604 23.1467 88.1804 22.94 88.127 22.82C88.0737 22.7 87.9937 22.5133 87.887 22.26C87.7937 22.0067 87.7137 21.82 87.647 21.7C87.5804 21.5667 87.4937 21.4 87.387 21.2C87.2937 20.9867 87.207 20.8133 87.127 20.68C86.9804 20.4133 86.7937 20.12 86.567 19.8C86.7404 19.6533 86.967 19.5333 87.247 19.44C87.527 19.3333 87.7604 19.28 87.947 19.28C88.5737 19.28 89.107 19.76 89.547 20.72C89.7337 21.1467 90.087 22.1733 90.607 23.8C92.7137 21.7467 93.867 20.18 94.067 19.1C94.587 19.7533 94.847 20.2933 94.847 20.72C94.847 21.1333 94.727 21.5267 94.487 21.9C94.247 22.26 93.9937 22.5667 93.727 22.82C93.4604 23.06 93.027 23.4333 92.427 23.94C91.827 24.4333 91.367 24.8267 91.047 25.12C92.167 28.28 93.4337 30.38 94.847 31.42C94.487 31.54 94.1604 31.6 93.867 31.6ZM112.002 24.72L111.982 24.22L111.942 23.72C112.182 23.6933 112.429 23.68 112.682 23.68C113.296 23.68 113.722 23.8133 113.962 24.08C114.202 24.3333 114.322 24.7733 114.322 25.4C114.322 29.4667 113.636 32.64 112.262 34.92C111.782 35.7067 111.156 36.3467 110.382 36.84C109.622 37.3333 108.756 37.58 107.782 37.58C106.462 37.58 105.469 37.22 104.802 36.5C104.136 35.7933 103.802 35 103.802 34.12C103.802 33.2533 103.996 32.5667 104.382 32.06C104.782 31.5667 105.276 31.32 105.862 31.32C106.236 31.32 106.582 31.4333 106.902 31.66C106.329 32.4467 106.042 33.2267 106.042 34C106.042 35.6133 106.689 36.42 107.982 36.42C109.276 36.42 110.256 35.66 110.922 34.14C111.589 32.62 111.982 30.5 112.102 27.78C111.622 28.6467 111.022 29.3067 110.302 29.76C109.582 30.2 108.829 30.42 108.042 30.42C106.789 30.42 105.716 29.9 104.822 28.86C103.942 27.82 103.502 26.3733 103.502 24.52C103.502 21.96 104.122 19.7467 105.362 17.88C105.976 16.96 106.762 16.2333 107.722 15.7C108.696 15.1533 109.802 14.88 111.042 14.88C112.282 14.88 113.222 15.22 113.862 15.9C114.516 16.5667 114.842 17.38 114.842 18.34C114.842 19.2867 114.562 20.0333 114.002 20.58C113.456 21.1133 112.802 21.38 112.042 21.38C110.936 21.38 110.102 20.9933 109.542 20.22C109.902 20.3133 110.242 20.36 110.562 20.36C111.322 20.36 111.916 20.1333 112.342 19.68C112.782 19.2267 113.002 18.7067 113.002 18.12C113.002 17.52 112.802 17.0267 112.402 16.64C112.002 16.24 111.436 16.04 110.702 16.04C109.729 16.04 108.842 16.4867 108.042 17.38C107.256 18.2733 106.656 19.3533 106.242 20.62C105.842 21.8867 105.642 23.2133 105.642 24.6C105.642 25.9733 105.936 27.0533 106.522 27.84C107.122 28.6267 107.856 29.02 108.722 29.02C109.589 29.02 110.349 28.6333 111.002 27.86C111.669 27.0733 112.002 26.0267 112.002 24.72ZM120.213 31.3C119.453 31.0333 118.919 30.6267 118.613 30.08C118.319 29.52 118.173 28.8467 118.173 28.06C118.173 27.2733 118.279 26.1467 118.493 24.68C118.706 23.2133 118.813 22.0733 118.813 21.26C118.813 20.4467 118.773 19.82 118.693 19.38C118.933 19.3533 119.126 19.34 119.273 19.34C119.873 19.34 120.306 19.4733 120.573 19.74C120.839 20.0067 120.973 20.4467 120.973 21.06C120.973 21.26 120.806 22.3133 120.473 24.22C120.153 26.1133 119.986 27.68 119.973 28.92C119.973 30.1467 120.053 30.94 120.213 31.3ZM120.513 17.36C119.393 17.36 118.833 16.98 118.833 16.22C118.833 15.9533 118.933 15.58 119.133 15.1C119.426 15.0467 119.679 15.02 119.893 15.02C121.013 15.02 121.573 15.4 121.573 16.16C121.573 16.4267 121.473 16.8 121.273 17.28C120.979 17.3333 120.726 17.36 120.513 17.36ZM130.479 20.04C130.479 20.6 130.372 20.9867 130.159 21.2C129.945 21.4133 129.632 21.52 129.219 21.52H127.779C127.725 21.8667 127.585 22.6933 127.359 24C126.905 26.48 126.679 28.3533 126.679 29.62C126.679 30.8867 126.772 31.7267 126.959 32.14C126.199 31.86 125.659 31.44 125.339 30.88C125.019 30.3067 124.859 29.6133 124.859 28.8C124.859 27.9867 124.905 27.22 124.999 26.5C125.105 25.7667 125.252 24.9133 125.439 23.94C125.625 22.9667 125.759 22.1867 125.839 21.6C125.079 21.7067 124.332 21.92 123.599 22.24C123.572 22.0267 123.559 21.8333 123.559 21.66C123.559 21.02 123.772 20.5933 124.199 20.38C124.625 20.1533 125.239 20.04 126.039 20.04C126.132 19.0533 126.179 18.32 126.179 17.84C126.179 17.3467 126.172 16.9533 126.159 16.66C126.159 16.3667 126.159 16.1467 126.159 16C126.772 16.0933 127.245 16.3667 127.579 16.82C127.912 17.26 128.079 17.8667 128.079 18.64C128.079 19.04 128.045 19.5267 127.979 20.1C129.139 20.1 129.959 19.9067 130.439 19.52C130.465 19.7067 130.479 19.88 130.479 20.04ZM134.693 23.18C134.307 23.8467 134.007 24.5333 133.793 25.24C133.593 25.9333 133.493 26.6 133.493 27.24C133.493 27.88 133.633 28.4267 133.913 28.88C134.207 29.32 134.62 29.54 135.153 29.54C135.9 29.54 136.6 29.1333 137.253 28.32C137.907 27.4933 138.407 26.5 138.753 25.34C139.113 24.1667 139.293 23.0867 139.293 22.1C139.293 21.1 139.253 20.28 139.173 19.64C139.493 19.6133 139.693 19.6 139.773 19.6C140.907 19.6 141.473 20.18 141.473 21.34C141.473 21.5933 141.313 22.6267 140.993 24.44C140.673 26.24 140.513 27.6867 140.513 28.78C140.513 29.86 140.72 30.82 141.133 31.66C140.293 31.4867 139.68 31.12 139.293 30.56C138.92 29.9867 138.733 29.1667 138.733 28.1C138.733 27.9133 138.76 27.5533 138.813 27.02C138.453 28.2867 137.82 29.3067 136.913 30.08C136.007 30.8533 135.113 31.24 134.233 31.24C133.367 31.24 132.667 30.9133 132.133 30.26C131.6 29.5933 131.333 28.68 131.333 27.52C131.333 26.3467 131.547 25.2067 131.973 24.1C132.413 22.98 133.067 22.0133 133.933 21.2C134.813 20.3867 135.793 19.98 136.873 19.98C137.34 19.98 137.853 20.0733 138.413 20.26C137.627 20.46 136.907 20.8267 136.253 21.36C135.6 21.8933 135.08 22.5 134.693 23.18ZM147.109 24.5C147.589 22.7667 148.162 21.4933 148.829 20.68C149.509 19.8533 150.135 19.44 150.709 19.44C151.295 19.44 151.735 19.66 152.029 20.1C152.322 20.5267 152.469 21.0733 152.469 21.74C152.469 22.4067 152.295 22.9867 151.949 23.48C151.602 23.96 151.095 24.2 150.429 24.2C150.215 24.2 150.049 24.1867 149.929 24.16C150.382 23.5067 150.609 22.84 150.609 22.16C150.609 21.68 150.415 21.44 150.029 21.44C149.722 21.44 149.395 21.62 149.049 21.98C148.702 22.34 148.369 22.84 148.049 23.48C147.729 24.12 147.462 24.9533 147.249 25.98C147.035 27.0067 146.929 28.1133 146.929 29.3C146.929 29.4333 146.962 30 147.029 31C146.682 31.0267 146.482 31.04 146.429 31.04C145.255 31.04 144.669 30.4667 144.669 29.32C144.669 29.0533 144.809 28.0267 145.089 26.24C145.369 24.4533 145.509 23.0333 145.509 21.98C145.509 20.9133 145.395 19.9333 145.169 19.04C145.955 19.3467 146.502 19.7867 146.809 20.36C147.129 20.92 147.289 21.58 147.289 22.34C147.289 23.0867 147.229 23.8067 147.109 24.5ZM156.307 31.3C155.547 31.0333 155.013 30.6267 154.707 30.08C154.413 29.52 154.267 28.8467 154.267 28.06C154.267 27.2733 154.373 26.1467 154.587 24.68C154.8 23.2133 154.907 22.0733 154.907 21.26C154.907 20.4467 154.867 19.82 154.787 19.38C155.027 19.3533 155.22 19.34 155.367 19.34C155.967 19.34 156.4 19.4733 156.667 19.74C156.933 20.0067 157.067 20.4467 157.067 21.06C157.067 21.26 156.9 22.3133 156.567 24.22C156.247 26.1133 156.08 27.68 156.067 28.92C156.067 30.1467 156.147 30.94 156.307 31.3ZM156.607 17.36C155.487 17.36 154.927 16.98 154.927 16.22C154.927 15.9533 155.027 15.58 155.227 15.1C155.52 15.0467 155.773 15.02 155.987 15.02C157.107 15.02 157.667 15.4 157.667 16.16C157.667 16.4267 157.567 16.8 157.367 17.28C157.073 17.3333 156.82 17.36 156.607 17.36Z" fill="black"/>
</svg>
