<svg width="42" height="42" viewBox="0 0 42 42" fill="none" xmlns="http://www.w3.org/2000/svg">
<circle cx="21" cy="21" r="21" fill="#4B4DED"/>
<path d="M9.92 26.296C9.92 26.0933 10.2133 25.3413 10.8 24.04C11.3867 22.728 12.064 21.2293 12.832 19.544C13.6107 17.848 14.1387 16.6373 14.416 15.912L14.768 15C14.5973 14.744 14.4107 14.5147 14.208 14.312C14.5387 14.184 14.8533 14.12 15.152 14.12C15.824 14.12 16.3467 14.5467 16.72 15.4C16.9547 15.944 17.2693 17.16 17.664 19.048C17.6747 19.0693 17.6907 19.1387 17.712 19.256C17.7333 19.3733 17.84 19.9173 18.032 20.888C18.2347 21.848 18.3733 22.488 18.448 22.808C18.5227 23.1173 18.6507 23.5973 18.832 24.248C19.12 25.3467 19.4827 26.2 19.92 26.808C19.4187 27.1067 19.0027 27.256 18.672 27.256C18.352 27.256 18.1173 27.16 17.968 26.968C17.8293 26.7653 17.696 26.4613 17.568 26.056C17.4507 25.64 17.1947 24.4933 16.8 22.616C16.5653 22.9787 16.096 23.1707 15.392 23.192L12.544 23.304C11.936 24.9467 11.4933 26.3547 11.216 27.528C10.352 27.1653 9.92 26.7547 9.92 26.296ZM15.328 16.424C14.1013 19.336 13.3173 21.2293 12.976 22.104H16.688C16.1867 19.6613 15.7333 17.768 15.328 16.424ZM27.9925 21.976L27.9765 21.576L27.9445 21.176C28.1365 21.1547 28.3338 21.144 28.5365 21.144C29.0272 21.144 29.3685 21.2507 29.5605 21.464C29.7525 21.6667 29.8485 22.0187 29.8485 22.52C29.8485 25.7733 29.2992 28.312 28.2005 30.136C27.8165 30.7653 27.3152 31.2773 26.6965 31.672C26.0885 32.0667 25.3952 32.264 24.6165 32.264C23.5605 32.264 22.7658 31.976 22.2325 31.4C21.6992 30.8347 21.4325 30.2 21.4325 29.496C21.4325 28.8027 21.5872 28.2533 21.8965 27.848C22.2165 27.4533 22.6112 27.256 23.0805 27.256C23.3792 27.256 23.6565 27.3467 23.9125 27.528C23.4538 28.1573 23.2245 28.7813 23.2245 29.4C23.2245 30.6907 23.7418 31.336 24.7765 31.336C25.8112 31.336 26.5952 30.728 27.1285 29.512C27.6618 28.296 27.9765 26.6 28.0725 24.424C27.6885 25.1173 27.2085 25.6453 26.6325 26.008C26.0565 26.36 25.4538 26.536 24.8245 26.536C23.8218 26.536 22.9632 26.12 22.2485 25.288C21.5445 24.456 21.1925 23.2987 21.1925 21.816C21.1925 19.768 21.6885 17.9973 22.6805 16.504C23.1712 15.768 23.8005 15.1867 24.5685 14.76C25.3472 14.3227 26.2325 14.104 27.2245 14.104C28.2165 14.104 28.9685 14.376 29.4805 14.92C30.0032 15.4533 30.2645 16.104 30.2645 16.872C30.2645 17.6293 30.0405 18.2267 29.5925 18.664C29.1552 19.0907 28.6325 19.304 28.0245 19.304C27.1392 19.304 26.4725 18.9947 26.0245 18.376C26.3125 18.4507 26.5845 18.488 26.8405 18.488C27.4485 18.488 27.9232 18.3067 28.2645 17.944C28.6165 17.5813 28.7925 17.1653 28.7925 16.696C28.7925 16.216 28.6325 15.8213 28.3125 15.512C27.9925 15.192 27.5392 15.032 26.9525 15.032C26.1738 15.032 25.4645 15.3893 24.8245 16.104C24.1952 16.8187 23.7152 17.6827 23.3845 18.696C23.0645 19.7093 22.9045 20.7707 22.9045 21.88C22.9045 22.9787 23.1392 23.8427 23.6085 24.472C24.0885 25.1013 24.6752 25.416 25.3685 25.416C26.0618 25.416 26.6698 25.1067 27.1925 24.488C27.7258 23.8587 27.9925 23.0213 27.9925 21.976Z" fill="white"/>
</svg>
