<svg width="414" height="444" viewBox="0 0 414 444" fill="none" xmlns="http://www.w3.org/2000/svg">
<path d="M0.596542 443.043H413.403C413.734 443.043 414 442.776 414 442.446C414 442.116 413.734 441.85 413.403 441.85H0.596542C0.266455 441.85 0 442.116 0 442.446C0 442.776 0.266455 443.043 0.596542 443.043Z" fill="black"/>
<path opacity="0.4" d="M204.375 -25.3431C97.4988 -25.3431 10.8571 61.3172 10.8571 168.217C10.8571 275.116 97.4988 361.776 204.375 361.776C311.252 361.776 397.893 275.116 397.893 168.217C397.893 61.3172 311.252 -25.3431 204.375 -25.3431Z" fill="#ECF1F4"/>
<path d="M288.846 442.446V433.556C288.846 433.399 288.782 433.246 288.671 433.134C288.559 433.023 288.406 432.959 288.249 432.959H204.972C204.815 432.959 204.662 433.023 204.55 433.134C204.439 433.246 204.375 433.399 204.375 433.556V442.446C204.375 442.776 204.642 443.043 204.972 443.043C205.302 443.043 205.568 442.776 205.568 442.446V434.153H287.652V442.446C287.652 442.776 287.919 443.043 288.249 443.043C288.579 443.043 288.846 442.776 288.846 442.446Z" fill="black"/>
<path d="M78.3259 442.446H62.6369V216.129H78.3259V387.672C74.9853 388.328 72.0026 390.536 70.4516 393.758L66.6337 401.753L78.3259 407.302V442.446Z" fill="#0E0E2C"/>
<path d="M296.362 202.645V216.129H249.951H78.3259H62.5772H23.3844V202.645H70.3323H88.6461H140.187H235.574H296.362Z" fill="black"/>
<path d="M339.313 235.461C340.446 241.607 341.401 250.557 340.506 261.536C338.716 283.255 325.354 290.415 308.83 290.415H293.2V390.715H247.147C247.147 390.715 240.943 332.48 238.259 289.221C237.901 283.851 237.662 278.78 237.424 274.006C236.171 246.261 253.888 238.683 266.654 236.834L273.037 236.714L284.968 236.535L339.194 235.64L339.313 235.461Z" fill="black"/>
<path d="M247.446 61.2337C246.133 59.9807 245 58.3697 243.986 56.341C234.083 35.7559 260.45 30.6842 260.45 30.6842C289.681 24.7175 301.91 41.7226 303.341 55.0284C305.847 78.1195 293.797 83.9669 293.499 84.0862L291.112 80.6255C296.123 81.2222 298.39 74.5991 296.78 69.3484C295.169 64.0977 287.533 71.9738 287.533 71.9738C280.613 64.0381 284.312 52.9997 284.312 52.9997L282.522 53.5963C282.403 53.656 259.257 72.5108 247.446 61.2337Z" fill="black"/>
<path d="M266.773 103.12C265.819 103.418 264.805 103.657 263.791 103.955C247.744 107.774 247.028 75.2555 247.505 61.2337C259.317 72.5108 282.463 53.656 282.463 53.656L284.252 53.0593C284.252 53.0593 280.554 64.0977 287.473 72.0334C287.473 72.0334 295.109 64.1574 296.72 69.4081C298.331 74.6588 296.123 81.2818 291.053 80.6851L293.439 84.1458L288.13 92.0816L291.828 110.817L280.255 124.421L268.444 114.994L266.773 103.12Z" fill="#F4B383"/>
<path fill-rule="evenodd" clip-rule="evenodd" d="M299.345 114.337L299.003 114.874H314.02C321.059 114.874 326.786 118.454 331.677 123.168L371.586 179.136C378.565 189.1 370.87 202.645 358.701 201.75L338.06 200.258L339.313 235.461V235.7L285.087 236.595C284.729 236.535 274.111 235.939 267.549 236.774L266.773 236.893L251.979 237.132L249.951 216.07H296.362V202.585H235.574V201.869L221.556 157.715L239.869 129.075C243.568 123.287 249.832 119.588 256.692 119.111L261.822 118.753L261.882 118.872L268.503 114.994L280.19 124.369L280.255 124.302L280.307 124.359L291.888 110.817L299.345 114.337Z" fill="#F3D9DA"/>
<path d="M251.92 237.192L266.714 236.953C253.948 238.803 236.29 246.38 237.483 274.126C237.722 278.899 237.961 283.971 238.318 289.341H220.78L176.397 390.834L167.27 385.703L140.963 370.846L131.239 365.356L183.974 254.555C188.984 243.994 199.663 237.251 211.355 237.251H251.92V237.192Z" fill="black"/>
<path d="M293.499 84.0862L293.765 84.6192C293.765 84.6192 293.795 84.6033 293.827 84.5893C294.322 84.3387 296.947 82.9127 299.438 79.3168C301.934 75.7228 304.284 69.963 304.282 61.1183C304.282 59.213 304.173 57.1644 303.934 54.9627C303.304 49.1451 300.647 42.6295 295.449 37.5499C292.85 35.01 289.615 32.8362 285.694 31.2987C281.773 29.7613 277.167 28.8623 271.828 28.8623C268.319 28.8623 264.491 29.2502 260.331 30.0994L260.45 30.6842L260.337 30.0974C260.303 30.1054 255.588 31.0103 250.826 33.6417C248.446 34.9583 246.048 36.7085 244.228 39.0216C243.319 40.1772 242.556 41.4759 242.023 42.9258C241.488 44.3738 241.184 45.9748 241.184 47.7231C241.184 50.3425 241.866 53.29 243.447 56.5976V56.5936C244.429 58.6859 245.666 60.3586 247.032 61.6633C248.452 63.0197 250.039 63.9644 251.719 64.5651C253.401 65.1657 255.175 65.4243 256.982 65.4243C260.003 65.4243 263.117 64.7063 266.091 63.6442C270.556 62.0491 274.715 59.6704 277.768 57.6914C280.82 55.7105 282.765 54.1273 282.777 54.1174L282.401 53.654L282.59 54.2208L284.379 53.6241L284.191 53.0573L283.626 52.8684C283.614 52.9062 282.61 55.9054 282.608 59.9469C282.608 61.8383 282.828 63.9585 283.485 66.1085C284.139 68.2585 285.23 70.4363 286.964 72.4232C287.074 72.5485 287.233 72.6241 287.398 72.6281C287.563 72.6321 287.726 72.5664 287.841 72.4471H287.843C287.897 72.3894 288.967 71.2995 290.345 70.2374C291.033 69.7064 291.798 69.1853 292.54 68.8054C293.28 68.4236 293.994 68.1948 294.537 68.1988C294.719 68.1988 294.885 68.2227 295.03 68.2684C295.248 68.338 295.433 68.4534 295.612 68.6543C295.789 68.8551 295.958 69.1515 296.09 69.5831C296.42 70.6611 296.583 71.8067 296.583 72.9284C296.583 74.8477 296.105 76.6934 295.242 78.0101C294.811 78.6704 294.29 79.1974 293.691 79.5594C293.091 79.9214 292.413 80.1243 291.623 80.1243C291.442 80.1243 291.256 80.1143 291.065 80.0904C290.828 80.0626 290.599 80.178 290.48 80.3828C290.361 80.5877 290.375 80.8462 290.516 81.0372L293.021 84.4382C293.192 84.6709 293.509 84.7485 293.769 84.6172L293.503 84.0842L293.984 83.7301L291.478 80.3291L290.997 80.6831L290.927 81.2758C291.164 81.3037 291.399 81.3176 291.627 81.3176C292.626 81.3176 293.536 81.0511 294.312 80.5817C294.894 80.2297 295.404 79.7663 295.837 79.2273C296.487 78.4178 296.97 77.4333 297.293 76.3593C297.615 75.2853 297.78 74.1158 297.78 72.9284C297.78 71.6913 297.603 70.4323 297.235 69.233C297.122 68.8631 296.978 68.5389 296.801 68.2565C296.537 67.8328 296.193 67.5067 295.799 67.2998C295.405 67.093 294.972 67.0055 294.543 67.0055C293.68 67.0094 292.811 67.3277 291.961 67.7652C290.691 68.4255 289.464 69.3842 288.539 70.1798C287.617 70.9753 287 71.6098 286.992 71.6177L287.42 72.0334L287.869 71.6416C286.259 69.7939 285.244 67.7752 284.632 65.7624C284.02 63.7516 283.807 61.7468 283.809 59.9488C283.809 58.0276 284.049 56.343 284.29 55.1437C284.411 54.543 284.531 54.0657 284.62 53.7395C284.664 53.5764 284.702 53.4511 284.727 53.3696C284.739 53.3278 284.749 53.298 284.757 53.2761L284.765 53.2542V53.2502C284.837 53.0354 284.781 52.7988 284.622 52.6396C284.463 52.4785 284.226 52.4228 284.012 52.4944L282.222 53.0911C282.154 53.113 282.089 53.1488 282.033 53.1945L282.025 53.2005C281.832 53.3556 278.382 56.1302 273.566 58.855C271.158 60.2174 268.41 61.5658 265.564 62.5702C262.719 63.5746 259.778 64.2329 256.992 64.2329C255.298 64.2329 253.663 63.9903 252.13 63.4433C250.597 62.8944 249.166 62.0432 247.865 60.8021C246.606 59.6008 245.457 58.0514 244.532 56.0864V56.0824C243.009 52.9022 242.385 50.1316 242.385 47.7231C242.385 46.1121 242.663 44.6582 243.15 43.3376C244.002 41.0284 245.497 39.1171 247.284 37.5439C249.963 35.185 253.296 33.6039 255.954 32.6253C257.282 32.1361 258.444 31.794 259.269 31.5772C259.681 31.4678 260.011 31.3902 260.233 31.3405C260.345 31.3146 260.432 31.2967 260.488 31.2848C260.516 31.2788 260.538 31.2749 260.552 31.2709L260.567 31.2669H260.571L260.577 31.2649C264.668 30.4296 268.416 30.0517 271.836 30.0517C277.042 30.0517 281.494 30.9268 285.266 32.4066C290.923 34.6262 295.062 38.2042 297.909 42.2775C300.756 46.3487 302.306 50.9212 302.755 55.09C302.99 57.2519 303.095 59.2567 303.095 61.1163C303.093 70.0306 300.667 75.5915 298.237 78.9568C297.02 80.6394 295.799 81.7731 294.869 82.493C294.403 82.853 294.012 83.1096 293.729 83.2806C293.588 83.3662 293.475 83.4298 293.393 83.4736C293.351 83.4954 293.32 83.5133 293.294 83.5253C293.268 83.5372 293.254 83.5452 293.24 83.5531L293.507 84.0862H293.499Z" fill="black"/>
<path d="M247.209 54.9846C247.209 54.9846 247.03 57.4449 246.909 61.2138C246.853 62.8706 246.813 64.7859 246.813 66.8683C246.813 70.5259 246.937 74.7026 247.308 78.9131C247.587 82.0714 248.006 85.2517 248.621 88.251C249.543 92.7498 250.898 96.845 252.922 99.8701C253.934 101.382 255.119 102.629 256.513 103.5C257.905 104.373 259.506 104.86 261.289 104.858C262.13 104.858 263.009 104.751 263.93 104.532L263.793 103.951L263.922 104.534C265.026 104.289 266 103.983 266.952 103.685H266.951C276.551 100.725 281.516 96.0136 281.562 95.9699C281.8 95.7431 281.81 95.3652 281.584 95.1266C281.357 94.8879 280.979 94.878 280.741 95.1047L280.82 95.1882L280.743 95.1047L280.822 95.1882L280.745 95.1047C280.715 95.1325 275.899 99.6812 266.603 102.545H266.601C265.646 102.844 264.709 103.136 263.666 103.369H263.658C262.818 103.569 262.033 103.663 261.293 103.663C259.897 103.663 258.671 103.333 257.561 102.726C256.589 102.195 255.708 101.449 254.904 100.511C253.5 98.8697 252.349 96.6421 251.43 94.0466C250.05 90.1523 249.191 85.4386 248.682 80.6593C248.173 75.88 248.012 71.033 248.012 66.8643C248.012 64.7958 248.052 62.8945 248.108 61.2496C248.167 59.3741 248.241 57.8267 248.301 56.7507C248.33 56.2118 248.356 55.7901 248.374 55.5037C248.384 55.3605 248.39 55.2511 248.396 55.1775C248.402 55.1039 248.404 55.0681 248.404 55.0681C248.428 54.74 248.181 54.4536 247.853 54.4297C247.525 54.4058 247.239 54.6525 247.215 54.9806L247.209 54.9846Z" fill="black"/>
<path d="M258.456 94.7905C258.484 94.8084 258.997 95.1385 259.869 95.4667C260.742 95.7948 261.979 96.123 263.449 96.123C264.457 96.123 265.574 95.9679 266.748 95.5522C267.921 95.1365 269.148 94.4603 270.377 93.434C270.629 93.2232 270.663 92.8473 270.452 92.5927C270.241 92.3381 269.866 92.3063 269.611 92.5171C268.484 93.4579 267.386 94.0585 266.348 94.4265C265.31 94.7944 264.334 94.9297 263.447 94.9297C262.156 94.9297 261.059 94.6393 260.287 94.3489C259.901 94.2037 259.599 94.0585 259.394 93.9531C259.293 93.8994 259.215 93.8557 259.166 93.8278C259.142 93.8139 259.122 93.802 259.112 93.796L259.1 93.79C258.824 93.611 258.454 93.6886 258.275 93.9651C258.096 94.2415 258.175 94.6115 258.452 94.7905H258.456Z" fill="black"/>
<path d="M280.629 123.956L269.06 114.675L267.364 103.034C267.316 102.708 267.014 102.484 266.688 102.529C266.362 102.577 266.137 102.879 266.183 103.205L267.913 115.079C267.935 115.228 268.012 115.366 268.13 115.459L279.882 124.886C280.138 125.093 280.514 125.052 280.721 124.795C280.927 124.538 280.886 124.163 280.629 123.956Z" fill="black"/>
<path d="M293.001 83.756L287.692 91.7513C287.605 91.8826 287.573 92.0437 287.605 92.1968L291.248 110.648L279.802 124.033C279.587 124.284 279.617 124.66 279.868 124.874C280.118 125.089 280.494 125.059 280.709 124.809L292.341 111.205C292.461 111.066 292.508 110.881 292.472 110.702L288.822 92.2068L293.996 84.4163C294.179 84.1418 294.103 83.7719 293.829 83.5889C293.554 83.4059 293.184 83.4815 293.001 83.756Z" fill="black"/>
<path d="M268.201 114.479L261.58 118.357C261.309 118.516 261.208 118.856 261.347 119.137L269.4 135.366C269.486 135.539 269.653 135.66 269.844 135.69C270.035 135.72 270.229 135.654 270.365 135.515L280.241 125.294L288.285 134.189C288.414 134.332 288.605 134.403 288.798 134.381C288.991 134.358 289.16 134.244 289.251 134.073L299.442 115.296L299.848 114.658C299.939 114.514 299.965 114.335 299.917 114.172C299.87 114.009 299.752 113.872 299.599 113.798L292.142 110.278C291.844 110.137 291.488 110.264 291.349 110.562C291.208 110.861 291.335 111.217 291.633 111.356L298.478 114.588L298.424 114.673L298.402 114.709L288.603 132.764L280.697 124.021C280.585 123.898 280.43 123.828 280.263 123.824C280.096 123.822 279.939 123.886 279.824 124.005L270.09 134.077L262.659 119.105L268.8 115.507C269.084 115.34 269.18 114.974 269.012 114.691C268.845 114.407 268.482 114.311 268.197 114.479H268.201Z" fill="black"/>
<path d="M314.908 157.053L325.586 171.731C325.779 171.998 326.153 172.057 326.42 171.862C326.686 171.669 326.746 171.295 326.551 171.029L315.873 156.351C315.68 156.084 315.306 156.025 315.04 156.22C314.773 156.413 314.714 156.786 314.908 157.053Z" fill="black"/>
<path d="M222.118 158.097L240.432 129.457C244.027 123.83 250.122 120.23 256.793 119.767L261.924 119.409C262.252 119.385 262.5 119.101 262.476 118.773C262.452 118.444 262.168 118.196 261.84 118.22L256.71 118.578C249.661 119.069 243.228 122.868 239.426 128.817L221.112 157.457C220.935 157.735 221.017 158.103 221.293 158.28C221.571 158.457 221.939 158.376 222.116 158.099L222.118 158.097Z" fill="black"/>
<path d="M88.6461 203.241H295.765V215.533H78.3259C77.9958 215.533 77.7293 215.799 77.7293 216.129C77.7293 216.459 77.9958 216.726 78.3259 216.726H296.362C296.519 216.726 296.672 216.662 296.783 216.551C296.895 216.44 296.958 216.286 296.958 216.129V202.645C296.958 202.487 296.895 202.334 296.783 202.223C296.672 202.112 296.519 202.048 296.362 202.048H88.6461C88.316 202.048 88.0495 202.314 88.0495 202.645C88.0495 202.975 88.316 203.241 88.6461 203.241Z" fill="black"/>
<path d="M62.5772 215.533H23.981V203.241H70.3323C70.6624 203.241 70.9288 202.975 70.9288 202.645C70.9288 202.314 70.6624 202.048 70.3323 202.048H23.3844C23.2274 202.048 23.0742 202.112 22.9629 202.223C22.8515 202.334 22.7879 202.487 22.7879 202.645V216.129C22.7879 216.286 22.8515 216.44 22.9629 216.551C23.0742 216.662 23.2274 216.726 23.3844 216.726H62.5772C62.9073 216.726 63.1738 216.459 63.1738 216.129C63.1738 215.799 62.9073 215.533 62.5772 215.533Z" fill="black"/>
<path d="M235.574 201.928L221.556 157.775L214.636 135.758C213.92 133.431 211.713 131.82 209.267 131.82H125.99C122.172 131.82 119.487 135.519 120.561 139.159L140.187 201.928" fill="#F3D9DA"/>
<path d="M236.143 201.748L222.124 157.594L215.204 135.579V135.583C214.407 132.999 211.975 131.225 209.267 131.223H125.99C124.202 131.223 122.627 131.963 121.512 133.118C120.396 134.274 119.726 135.845 119.726 137.522C119.726 138.117 119.811 138.725 119.988 139.328V139.338L139.617 202.107C139.714 202.422 140.05 202.597 140.364 202.499C140.678 202.402 140.853 202.066 140.756 201.751L121.13 138.982L120.561 139.161L121.134 138.992C120.989 138.498 120.919 138.005 120.919 137.522C120.919 136.165 121.462 134.887 122.369 133.948C123.277 133.011 124.534 132.418 125.99 132.416H209.267C211.45 132.414 213.433 133.864 214.065 135.933V135.937L220.987 157.954L235.006 202.109C235.105 202.424 235.441 202.597 235.755 202.497C236.069 202.398 236.242 202.062 236.143 201.748Z" fill="black"/>
<path d="M173.415 176.689C178.093 176.689 181.886 172.896 181.886 168.217C181.886 163.537 178.093 159.744 173.415 159.744C168.736 159.744 164.944 163.537 164.944 168.217C164.944 172.896 168.736 176.689 173.415 176.689Z" fill="black"/>
<path d="M173.415 176.689V177.286C175.916 177.286 178.187 176.27 179.826 174.629C181.466 172.99 182.482 170.719 182.482 168.217C182.482 165.715 181.466 163.443 179.826 161.804C178.187 160.164 175.916 159.147 173.415 159.147C170.913 159.147 168.642 160.164 167.004 161.804C165.363 163.443 164.347 165.715 164.347 168.217C164.347 170.719 165.363 172.99 167.004 174.629C168.642 176.27 170.913 177.286 173.415 177.286V176.093C171.239 176.093 169.275 175.212 167.847 173.786C166.421 172.358 165.54 170.393 165.54 168.217C165.54 166.039 166.421 164.074 167.847 162.648C169.275 161.222 171.239 160.341 173.415 160.341C175.59 160.341 177.557 161.222 178.982 162.648C180.408 164.076 181.289 166.041 181.289 168.217C181.289 170.393 180.408 172.36 178.982 173.786C177.555 175.212 175.59 176.093 173.415 176.093V176.689Z" fill="black"/>
<path d="M285.038 237.192L339.323 236.297C339.649 236.291 339.91 236.026 339.91 235.7V235.44L338.657 200.236C338.645 199.906 338.368 199.649 338.04 199.661C337.71 199.673 337.454 199.95 337.466 200.278L338.718 235.469V235.698H339.315L339.305 235.101L285.02 235.996C284.69 236.002 284.427 236.273 284.433 236.603C284.439 236.933 284.709 237.196 285.04 237.19L285.038 237.192Z" fill="black"/>
<path d="M249.356 216.185L251.325 237.247C251.355 237.56 251.617 237.794 251.932 237.788L266.722 237.49L273.16 237.43H273.166L285.038 237.192C285.368 237.186 285.628 236.913 285.622 236.583C285.616 236.253 285.344 235.992 285.014 235.998L273.147 236.237L266.708 236.297H266.702L252.462 236.583L250.546 216.074C250.516 215.745 250.223 215.505 249.895 215.535C249.567 215.564 249.327 215.857 249.356 216.185Z" fill="black"/>
<path d="M292.604 313.088V390.118H247.147V390.715L247.74 390.651C247.74 390.651 247.716 390.425 247.67 389.987C246.978 383.436 241.369 329.719 238.853 289.184C238.495 283.818 238.257 278.75 238.018 273.976C237.976 273.052 237.957 272.149 237.957 271.266C237.957 264.953 239.004 259.806 240.752 255.603C243.377 249.302 247.573 245.108 252.27 242.297C256.966 239.491 262.166 238.083 266.738 237.422C266.762 237.418 266.773 237.416 266.797 237.41C266.861 237.395 266.972 237.379 267.106 237.365C267.241 237.349 267.396 237.335 267.573 237.291L267.428 236.712L267.503 237.305C270.108 236.973 273.403 236.868 276.418 236.87C278.645 236.87 280.723 236.925 282.266 236.987C283.037 237.017 283.677 237.049 284.135 237.074C284.363 237.088 284.546 237.098 284.678 237.108C284.743 237.112 284.795 237.116 284.831 237.12C284.849 237.12 284.863 237.122 284.871 237.124H284.877L284.91 236.858L284.867 237.122H284.877L284.91 236.858L284.867 237.122C285.191 237.176 285.499 236.957 285.553 236.631C285.606 236.307 285.388 235.998 285.061 235.945C285.034 235.941 285.016 235.939 284.996 235.937C284.924 235.929 284.819 235.921 284.662 235.911C283.58 235.839 280.223 235.676 276.414 235.676C273.369 235.676 270.042 235.78 267.35 236.122C267.326 236.126 267.304 236.13 267.281 236.136C267.217 236.152 267.106 236.167 266.972 236.181C266.837 236.197 266.682 236.211 266.505 236.255L266.65 236.834L266.565 236.243C263.445 236.694 260.027 237.486 256.65 238.827C251.585 240.835 246.598 244.089 242.888 249.286C239.175 254.483 236.759 261.603 236.761 271.268C236.761 272.167 236.783 273.089 236.825 274.034C237.064 278.809 237.302 283.885 237.66 289.261C240.347 332.538 246.551 390.775 246.551 390.779C246.583 391.081 246.839 391.312 247.143 391.312H293.196C293.353 391.312 293.506 391.248 293.618 391.137C293.729 391.025 293.793 390.872 293.793 390.715V313.088C293.793 312.758 293.526 312.491 293.196 312.491C292.866 312.491 292.6 312.758 292.6 313.088H292.604Z" fill="black"/>
<path d="M338.726 235.569C339.542 239.984 340.263 245.863 340.263 252.912C340.263 255.605 340.158 258.469 339.911 261.488C339.468 266.86 338.313 271.307 336.587 274.957C335.292 277.694 333.678 279.983 331.793 281.882C328.967 284.732 325.535 286.711 321.649 287.984C317.766 289.257 313.429 289.818 308.83 289.818C308.5 289.818 308.233 290.085 308.233 290.415C308.233 290.745 308.5 291.011 308.83 291.011C313.003 291.011 316.99 290.56 320.659 289.532C323.411 288.76 325.984 287.664 328.317 286.188C331.816 283.977 334.769 280.912 336.963 276.854C339.156 272.797 340.594 267.757 341.103 261.584C341.351 258.531 341.458 255.635 341.458 252.91C341.458 245.78 340.729 239.829 339.902 235.352C339.842 235.028 339.53 234.813 339.208 234.873C338.883 234.932 338.669 235.243 338.728 235.567L338.726 235.569Z" fill="black"/>
<path d="M258.004 236.595H211.355C199.432 236.595 188.545 243.469 183.435 254.239L130.7 364.981C130.565 365.263 130.672 365.603 130.945 365.756L140.668 371.246L166.976 386.103L176.103 391.234C176.25 391.316 176.425 391.333 176.584 391.28C176.743 391.226 176.875 391.107 176.942 390.954L221.168 289.818H238.316C238.646 289.818 238.913 289.552 238.913 289.221C238.913 288.891 238.646 288.625 238.316 288.625H220.778C220.541 288.625 220.327 288.764 220.231 288.983L176.113 389.872L167.561 385.062L141.253 370.205L132.015 364.991L184.51 254.752C189.422 244.4 199.891 237.788 211.353 237.788H258.002C258.332 237.788 258.599 237.522 258.599 237.192C258.599 236.862 258.332 236.595 258.002 236.595H258.004Z" fill="black"/>
<path d="M123.961 389.939L128.495 388.985C128.555 389.104 129.032 389.641 131.12 391.849C136.131 397.278 144.363 404.677 153.252 406.586C156.115 407.243 158.978 407.302 161.842 406.527L151.76 432.362L70.4516 393.698C72.0026 390.476 74.9853 388.269 78.3259 387.612C79.8769 387.314 81.4279 387.314 83.0386 387.732L109.107 393.102L115.371 391.789L123.961 389.939Z" fill="#F3D9DA"/>
<path d="M167.27 385.643L153.192 406.646C144.363 404.677 136.131 397.278 131.06 391.908L140.963 370.786L167.27 385.643Z" fill="#F4B383"/>
<path d="M78.326 407.302L66.6338 401.753L70.4516 393.758L151.76 432.422L147.942 440.418L78.326 407.302Z" fill="black"/>
<path d="M151.76 432.422L151.221 432.166L147.66 439.624L78.5805 406.765L67.4291 401.473L70.732 394.556L151.504 432.963L151.76 432.424L152.017 431.885L70.7081 393.221C70.4098 393.08 70.0559 393.205 69.9127 393.503L66.0949 401.499C66.0253 401.642 66.0173 401.805 66.071 401.956C66.1247 402.107 66.234 402.227 66.3772 402.296L78.0694 407.845L147.686 440.961C147.984 441.102 148.338 440.976 148.481 440.678L152.299 432.683C152.369 432.54 152.377 432.376 152.323 432.225C152.269 432.074 152.16 431.955 152.017 431.885L151.76 432.424V432.422Z" fill="black"/>
<path d="M128.372 388.4L123.838 389.355H123.836L115.246 391.204H115.25L109.108 392.491L83.1599 387.147L83.0386 387.732L83.1679 387.149C82.2154 386.936 81.257 386.825 80.3164 386.825C79.6006 386.825 78.8946 386.89 78.2086 387.028H78.2106C74.689 387.72 71.5492 390.043 69.9147 393.44C69.7715 393.736 69.8968 394.094 70.1931 394.235C70.4894 394.379 70.8473 394.253 70.9885 393.957C72.454 390.91 75.2816 388.818 78.4413 388.197H78.4433C79.0458 388.076 79.6741 388.018 80.3164 388.018C81.1615 388.018 82.0325 388.119 82.9094 388.314H82.9193L108.988 393.686C109.07 393.702 109.149 393.702 109.231 393.686L115.494 392.374H115.498L124.089 390.524H124.087L128.62 389.569C128.943 389.502 129.149 389.186 129.082 388.863C129.014 388.541 128.698 388.334 128.376 388.402L128.372 388.4Z" fill="black"/>
<path d="M128.495 388.985H128.555L129.08 389.096C129.09 389.048 129.092 389.012 129.092 388.985H128.555L129.08 389.096L128.517 388.977L128.931 389.376C129.032 389.269 129.064 389.166 129.08 389.096L128.517 388.977L128.931 389.376L128.509 388.969L128.738 389.508C128.813 389.476 128.881 389.428 128.931 389.374L128.509 388.967L128.738 389.506L128.507 388.965V389.551C128.581 389.551 128.662 389.538 128.738 389.504L128.507 388.963V389.549V388.965L128.26 389.496C128.326 389.528 128.41 389.549 128.507 389.551V388.967L128.26 389.498L128.507 388.971L128.032 389.307C128.089 389.388 128.161 389.45 128.26 389.498L128.507 388.971L128.032 389.307L128.509 388.969H127.924C127.924 389.118 127.976 389.225 128.032 389.307L128.509 388.969H128.513L128.01 388.666C127.954 388.758 127.926 388.871 127.926 388.969H128.513L128.01 388.666L128.511 388.967L128.157 388.501C128.105 388.541 128.05 388.597 128.01 388.666L128.511 388.967L128.157 388.501L128.503 388.959L128.366 388.402C128.31 388.416 128.237 388.442 128.157 388.501L128.503 388.959L128.366 388.402L128.495 388.925V388.386C128.463 388.386 128.422 388.388 128.366 388.402L128.495 388.925V388.983V389.579C128.533 389.579 128.577 389.577 128.632 389.565C128.712 389.547 128.823 389.512 128.935 389.406C128.988 389.355 129.038 389.285 129.072 389.207C129.106 389.13 129.119 389.046 129.119 388.971C129.119 388.869 129.096 388.784 129.062 388.714C129.012 388.609 128.946 388.535 128.861 388.473C128.775 388.414 128.662 388.362 128.509 388.36C128.408 388.36 128.292 388.388 128.197 388.446C128.125 388.489 128.068 388.545 128.026 388.601C127.962 388.684 127.934 388.764 127.918 388.825C127.903 388.889 127.901 388.939 127.901 388.983C127.901 389.14 127.964 389.293 128.076 389.404C128.187 389.516 128.34 389.579 128.497 389.579V388.983L128.495 388.985Z" fill="black"/>
<path d="M152.315 432.639L162.397 406.803C162.478 406.596 162.436 406.36 162.289 406.193C162.142 406.025 161.913 405.954 161.697 406.008C160.315 406.354 158.933 406.511 157.547 406.513C156.161 406.513 154.771 406.354 153.373 406.063L153.252 406.648L153.381 406.065C149.084 405.109 144.88 402.809 141.128 400.073C137.374 397.336 134.073 394.168 131.553 391.501L131.12 391.91L131.559 391.507C130.517 390.375 129.895 389.679 129.515 389.253C129.324 389.04 129.195 388.895 129.098 388.792C129.048 388.74 129.006 388.696 128.962 388.654C128.941 388.633 128.917 388.613 128.885 388.589C128.855 388.565 128.819 388.539 128.762 388.511C128.467 388.364 128.109 388.483 127.962 388.778C127.815 389.072 127.934 389.43 128.229 389.577L128.422 389.191L128.159 389.536C128.169 389.543 128.189 389.557 128.229 389.579L128.422 389.193L128.159 389.538L128.284 389.372L128.151 389.53L128.159 389.536L128.284 389.37L128.151 389.528C128.151 389.528 128.173 389.547 128.201 389.577C128.253 389.631 128.334 389.721 128.449 389.85C128.799 390.24 129.454 390.979 130.682 392.312L130.688 392.318C133.242 395.021 136.59 398.237 140.428 401.035C144.266 403.832 148.593 406.216 153.124 407.229H153.132C154.6 407.537 156.071 407.706 157.549 407.706C159.026 407.706 160.508 407.537 161.989 407.167L161.844 406.588L161.289 406.372L151.207 432.207C151.088 432.514 151.239 432.86 151.545 432.981C151.852 433.1 152.198 432.949 152.319 432.643L152.315 432.639Z" fill="black"/>
<path d="M140.422 370.534L130.579 391.596C130.44 391.894 130.569 392.25 130.867 392.39C131.166 392.529 131.522 392.4 131.661 392.101L141.504 371.039C141.643 370.74 141.514 370.384 141.215 370.245C140.917 370.106 140.561 370.235 140.422 370.534Z" fill="black"/>
<path d="M166.775 385.311L152.697 406.314C152.514 406.588 152.587 406.958 152.86 407.141C153.134 407.324 153.504 407.253 153.687 406.978L167.765 385.975C167.948 385.701 167.875 385.331 167.602 385.148C167.328 384.965 166.958 385.037 166.775 385.311Z" fill="black"/>
<path d="M127.284 401.016L124.54 389.798C124.462 389.478 124.138 389.283 123.818 389.361C123.498 389.438 123.303 389.762 123.381 390.083L126.125 401.3C126.202 401.62 126.526 401.815 126.847 401.738C127.167 401.66 127.362 401.336 127.284 401.016Z" fill="black"/>
<path d="M118.396 401.672L115.95 391.648C115.872 391.327 115.548 391.131 115.228 391.21C114.908 391.29 114.711 391.612 114.791 391.932L117.236 401.956C117.314 402.276 117.638 402.473 117.958 402.394C118.278 402.316 118.475 401.992 118.396 401.672Z" fill="black"/>
<path d="M288.249 433.556H204.972V442.446H288.249V433.556Z" fill="black"/>
<path d="M284.729 390.775L283.238 408.018C273.276 413.448 261.047 408.018 255.26 404.737L255.916 404.558L255.081 390.775H284.729Z" fill="#F4B383"/>
<path d="M286.28 405.93L288.249 433.556H204.972C204.972 428.305 208.611 423.83 213.741 422.756L239.571 416.372L251.8 402.589C251.8 402.589 253.053 403.484 255.201 404.677C260.987 407.959 273.216 413.388 283.178 407.959C284.252 407.422 285.266 406.765 286.28 405.93Z" fill="#F3D9DA"/>
<path d="M205.568 433.556C205.568 431.07 206.429 428.773 207.895 426.967C209.362 425.161 211.432 423.85 213.862 423.341L213.884 423.337L239.714 416.953C239.834 416.923 239.937 416.861 240.017 416.77L252.246 402.987L251.8 402.591L251.454 403.076C251.468 403.086 252.739 403.993 254.912 405.2H254.908C256.941 406.35 259.752 407.762 262.991 408.89C266.231 410.017 269.899 410.863 273.644 410.863C276.947 410.863 280.315 410.2 283.465 408.484L283.483 408.474C284.511 407.869 285.555 407.193 286.603 406.332L286.223 405.87L285.628 405.912L287.597 433.538C287.621 433.866 287.905 434.115 288.235 434.091C288.563 434.067 288.812 433.783 288.788 433.452L286.819 405.827C286.803 405.604 286.664 405.409 286.459 405.321C286.255 405.234 286.016 405.268 285.845 405.409C284.863 406.218 283.878 406.855 282.88 407.444L283.182 407.959L282.896 407.436C279.947 409.043 276.791 409.669 273.646 409.669C270.082 409.669 266.535 408.86 263.385 407.762C260.235 406.666 257.481 405.284 255.499 404.158H255.495C254.433 403.565 253.594 403.05 253.021 402.682C252.735 402.499 252.516 402.352 252.369 402.253C252.295 402.203 252.24 402.165 252.204 402.139C252.186 402.127 252.172 402.117 252.164 402.111L252.154 402.105H252.152C251.904 401.926 251.562 401.964 251.359 402.193L239.253 415.837L213.604 422.177L213.747 422.756L213.626 422.171C210.925 422.736 208.611 424.2 206.976 426.213C205.342 428.226 204.381 430.791 204.381 433.556C204.381 433.886 204.648 434.153 204.978 434.153C205.308 434.153 205.574 433.886 205.574 433.556H205.568Z" fill="black"/>
<path d="M256.511 404.522L255.676 390.739C255.656 390.411 255.374 390.16 255.043 390.18C254.715 390.2 254.465 390.482 254.485 390.812L255.32 404.595C255.34 404.924 255.622 405.174 255.952 405.154C256.28 405.134 256.531 404.852 256.511 404.522Z" fill="black"/>
<path d="M284.135 390.723L282.643 407.967C282.616 408.295 282.858 408.583 283.186 408.613C283.514 408.643 283.803 408.398 283.833 408.07L285.324 390.826C285.352 390.498 285.109 390.21 284.781 390.18C284.453 390.15 284.165 390.395 284.135 390.723Z" fill="black"/>
<path d="M251.162 418.295L243.467 412.03C243.212 411.821 242.836 411.861 242.627 412.115C242.419 412.37 242.458 412.746 242.713 412.955L250.408 419.22C250.663 419.429 251.039 419.389 251.248 419.134C251.456 418.88 251.417 418.504 251.162 418.295Z" fill="black"/>
<path d="M256.173 413.283L248.478 407.018C248.223 406.809 247.847 406.849 247.638 407.103C247.43 407.358 247.469 407.734 247.724 407.943L255.419 414.208C255.674 414.417 256.05 414.377 256.258 414.122C256.467 413.868 256.427 413.492 256.173 413.283Z" fill="black"/>
<path d="M308.83 290.415V291.011H363.652V312.491H293.797V290.415H293.2V291.011H308.83V289.818H293.2C293.043 289.818 292.89 289.882 292.779 289.993C292.667 290.104 292.604 290.258 292.604 290.415V313.088C292.604 313.245 292.667 313.398 292.779 313.51C292.89 313.621 293.043 313.685 293.2 313.685H364.248C364.406 313.685 364.559 313.621 364.67 313.51C364.781 313.398 364.845 313.245 364.845 313.088V290.415C364.845 290.258 364.781 290.104 364.67 289.993C364.559 289.882 364.406 289.818 364.248 289.818H308.83V290.415Z" fill="black"/>
<path d="M364.189 290.415V313.088H293.141V290.415H364.189Z" fill="black"/>
<path d="M341.299 311.99L292.741 370.524C292.53 370.776 292.566 371.154 292.819 371.363C293.073 371.574 293.449 371.538 293.658 371.285L342.216 312.752C342.427 312.497 342.391 312.122 342.139 311.913C341.886 311.702 341.508 311.738 341.299 311.99Z" fill="black"/>
<path d="M292.737 371.281L350.9 442.822C351.109 443.079 351.482 443.117 351.739 442.908C351.995 442.699 352.033 442.325 351.824 442.068L293.662 370.528C293.453 370.271 293.079 370.233 292.822 370.442C292.566 370.651 292.528 371.025 292.737 371.281Z" fill="black"/>
<path d="M77.7294 406.109V441.85H63.1738V216.726H77.7294V387.672C77.7294 388.002 77.9959 388.269 78.326 388.269C78.6561 388.269 78.9225 388.002 78.9225 387.672V216.129C78.9225 215.972 78.8589 215.819 78.7475 215.708C78.6362 215.596 78.4831 215.533 78.326 215.533H62.5773C62.4202 215.533 62.2671 215.596 62.1557 215.708C62.0444 215.819 61.9807 215.972 61.9807 216.129V442.446C61.9807 442.603 62.0444 442.757 62.1557 442.868C62.2671 442.979 62.4202 443.043 62.5773 443.043H78.326C78.4831 443.043 78.6362 442.979 78.7475 442.868C78.8589 442.757 78.9225 442.603 78.9225 442.446V406.109C78.9225 405.779 78.6561 405.512 78.326 405.512C77.9959 405.512 77.7294 405.779 77.7294 406.109Z" fill="black"/>
<path d="M281.627 179.315V202.108H239.69L247.028 189.756C250.607 183.79 256.871 180.031 263.791 179.852L281.627 179.315Z" fill="#F4B383"/>
<path d="M243.6 196.451L247.597 189.888C251.128 184.038 257.434 180.508 264.266 180.508H281.088C281.419 180.508 281.685 180.242 281.685 179.911C281.685 179.581 281.419 179.315 281.088 179.315H264.266C257.02 179.315 250.323 183.064 246.575 189.269L242.578 195.831C242.407 196.111 242.496 196.479 242.777 196.65C243.057 196.821 243.425 196.732 243.596 196.451H243.6Z" fill="black"/>
<path d="M251.122 197.756L255.298 190.655C255.465 190.371 255.37 190.005 255.087 189.838C254.803 189.671 254.437 189.766 254.27 190.049L250.094 197.149C249.927 197.434 250.023 197.8 250.305 197.967C250.589 198.134 250.955 198.038 251.122 197.756Z" fill="black"/>
<path d="M298.927 115.59H311.335C320.625 115.59 329.395 120.151 334.769 127.748L371.218 179.597C372.974 182.105 373.757 184.83 373.757 187.485C373.757 191.073 372.32 194.536 369.874 197.095C367.428 199.655 363.992 201.31 359.961 201.312C359.601 201.312 359.236 201.298 358.864 201.272H358.866L338.106 199.661L281.687 195.347V173.565L326.03 172.033L344.761 171.377C345.092 171.365 345.348 171.089 345.336 170.76C345.324 170.43 345.048 170.174 344.72 170.186L325.988 170.842L281.069 172.393C280.747 172.405 280.492 172.668 280.492 172.99V195.902C280.492 196.214 280.733 196.473 281.043 196.497L338.013 200.853L358.772 202.464H358.774C359.174 202.493 359.568 202.507 359.959 202.507C364.322 202.507 368.084 200.699 370.735 197.921C373.388 195.142 374.948 191.393 374.948 187.487C374.948 184.595 374.089 181.618 372.192 178.913L335.744 127.062C330.144 119.147 321.017 114.399 311.335 114.399H298.927C298.597 114.399 298.331 114.665 298.331 114.996C298.331 115.326 298.597 115.592 298.927 115.592V115.59Z" fill="black"/>
<path d="M98.0118 158.133V162.727H94.8502H65.3213H62.2193V158.133H66.6337H93.5974H98.0118Z" fill="#F3D9DA"/>
<path d="M94.8502 162.727L93.1799 174.72H67.0513L65.3214 162.727H94.8502Z" fill="#F3D9DA"/>
<path d="M93.5974 158.133H66.6338L72.2412 153.479H87.99L93.5974 158.133Z" fill="black"/>
<path d="M93.1799 174.72L90.913 190.651H69.2585L67.0513 174.72H93.1799Z" fill="#ED489E"/>
<path d="M90.913 190.651L89.2427 202.645H70.9288L69.2585 190.651H90.913Z" fill="#F3D9DA"/>
<path d="M90.9129 190.055H69.2585C68.9284 190.055 68.6619 190.321 68.6619 190.651C68.6619 190.982 68.9284 191.248 69.2585 191.248H90.9129C91.243 191.248 91.5095 190.982 91.5095 190.651C91.5095 190.321 91.243 190.055 90.9129 190.055Z" fill="black"/>
<path d="M94.2596 162.646L92.5893 174.639L90.3224 190.568L88.7237 202.048H71.4478L69.8491 190.57L67.6419 174.639V174.635L65.9119 162.642C65.8642 162.316 65.562 162.089 65.2358 162.137C64.9097 162.184 64.683 162.487 64.7308 162.813L66.4607 174.806V174.802L68.6679 190.733L70.3383 202.726C70.38 203.02 70.6326 203.241 70.9288 203.241H89.2427C89.539 203.241 89.7935 203.02 89.8333 202.726L91.5036 190.733L93.7704 174.804L95.4407 162.809C95.4865 162.483 95.2578 162.18 94.9317 162.135C94.6056 162.089 94.3033 162.318 94.2576 162.644L94.2596 162.646Z" fill="black"/>
<path d="M93.5975 158.73H97.4153V162.131H62.8159V158.73H66.6338C66.9638 158.73 67.2303 158.463 67.2303 158.133C67.2303 157.803 66.9638 157.536 66.6338 157.536H62.2193C62.0623 157.536 61.9091 157.6 61.7978 157.711C61.6864 157.823 61.6228 157.976 61.6228 158.133V162.727C61.6228 162.884 61.6864 163.038 61.7978 163.149C61.9091 163.26 62.0623 163.324 62.2193 163.324H98.0119C98.1689 163.324 98.3221 163.26 98.4334 163.149C98.5448 163.038 98.6084 162.884 98.6084 162.727V158.133C98.6084 157.976 98.5448 157.823 98.4334 157.711C98.3221 157.6 98.1689 157.536 98.0119 157.536H93.5975C93.2674 157.536 93.0009 157.803 93.0009 158.133C93.0009 158.463 93.2674 158.73 93.5975 158.73Z" fill="black"/>
<path d="M93.5974 158.133V157.536H68.2861L72.4559 154.076H87.7732L93.2156 158.592L93.5974 158.133L93.9792 157.673L88.3717 153.019C88.2663 152.932 88.1291 152.882 87.9899 152.882H72.2412C72.104 152.882 71.9668 152.932 71.8594 153.019L66.2519 157.673C66.057 157.835 65.9855 158.097 66.071 158.336C66.1565 158.574 66.3792 158.73 66.6317 158.73H93.5954C93.8479 158.73 94.0706 158.572 94.1562 158.336C94.2417 158.099 94.1701 157.835 93.9752 157.673L93.5934 158.133H93.5974Z" fill="black"/>
<path d="M93.1798 174.124H67.0513C66.7212 174.124 66.4547 174.39 66.4547 174.72C66.4547 175.051 66.7212 175.317 67.0513 175.317H93.1798C93.5099 175.317 93.7764 175.051 93.7764 174.72C93.7764 174.39 93.5099 174.124 93.1798 174.124Z" fill="black"/>
<path d="M40.5649 88.5015H91.092C92.8378 88.5015 94.4167 89.2096 95.562 90.3492C96.7074 91.4888 97.4133 93.0521 97.4153 94.7665V97.2726C97.4153 99.0188 96.7074 100.596 95.562 101.744C94.4147 102.889 92.8378 103.597 91.092 103.597H67.3496C65.2776 103.597 63.3945 104.441 62.0364 105.801C60.6763 107.159 59.8332 109.043 59.8332 111.115V114.337C59.8332 116.41 60.6763 118.293 62.0364 119.652C63.3945 121.012 65.2776 121.855 67.3496 121.855H91.092C92.8378 121.855 94.4167 122.563 95.562 123.703C96.7074 124.843 97.4133 126.406 97.4153 128.12C97.4153 129.867 96.7074 131.444 95.562 132.591C94.4147 133.737 92.8378 134.445 91.092 134.445H85.3055C83.7107 134.445 82.2611 135.095 81.2152 136.142C80.1693 137.188 79.519 138.638 79.519 140.233V145.663C79.519 145.993 79.7855 146.259 80.1156 146.259C80.4457 146.259 80.7121 145.993 80.7121 145.663V140.233C80.7121 138.964 81.2252 137.818 82.0583 136.985C82.8915 136.152 84.0369 135.638 85.3055 135.638H91.092C93.1639 135.638 95.047 134.795 96.4052 133.435C97.7653 132.076 98.6084 130.193 98.6084 128.12C98.6084 126.076 97.7633 124.208 96.4052 122.856C95.047 121.505 93.1659 120.66 91.092 120.662H67.3496C65.6037 120.662 64.0269 119.954 62.8795 118.808C61.7341 117.661 61.0262 116.084 61.0262 114.337V111.115C61.0262 109.369 61.7341 107.792 62.8795 106.644C64.0269 105.499 65.6037 104.791 67.3496 104.791H91.092C93.1639 104.791 95.047 103.947 96.4052 102.587C97.7653 101.228 98.6084 99.345 98.6084 97.2726V94.7665C98.6084 92.722 97.7633 90.8544 96.4052 89.5019C95.047 88.1495 93.1659 87.3062 91.092 87.3082H40.5649C40.2348 87.3082 39.9683 87.5747 39.9683 87.9048C39.9683 88.235 40.2348 88.5015 40.5649 88.5015Z" fill="black"/>
<path d="M205.986 -8.03967H190.178V7.95109H205.986V-8.03967Z" fill="#ED489E"/>
<path d="M190.178 24.0015H174.369V39.9922H190.178V24.0015Z" fill="#ED489E"/>
<path d="M190.178 7.95108H174.369V23.9418H190.178V7.95108Z" fill="black"/>
<path d="M174.369 39.9922V69.5274H128.913V24.0611H174.369V39.9922ZM163.87 48.8826V44.6462L159.992 44.3479C159.814 43.6916 159.575 43.0352 159.217 42.4982L159.277 42.4386L161.782 39.4552L158.859 36.4719L155.876 39.0376C155.339 38.6795 154.743 38.4409 154.087 38.2619H154.027L153.788 34.2642H149.613L149.314 38.2619C148.658 38.4409 148.062 38.6795 147.525 39.0376V38.9779L144.542 36.4122L141.559 39.3956L144.124 42.3789C143.767 42.9159 143.528 43.6319 143.349 44.2286V44.2882L139.412 44.5866V48.8229L143.349 49.1213C143.528 49.7776 143.767 50.3743 144.124 50.971L141.559 53.9543L144.542 56.9377L147.525 54.3123C148.062 54.6703 148.658 54.909 149.314 55.088L149.613 59.026H153.788L154.087 55.088H154.146C154.803 54.909 155.399 54.6106 155.996 54.3123L158.978 56.9377L161.901 53.9543L159.396 50.971H159.336C159.635 50.434 159.933 49.8373 160.112 49.1809L163.87 48.8826Z" fill="#4B4DED"/>
<path d="M174.31 -8.03967H158.501V7.95109H174.31V-8.03967Z" fill="black"/>
<path d="M151.641 51.2693C154.079 51.2693 156.055 49.2658 156.055 46.7943C156.055 44.3228 154.079 42.3192 151.641 42.3192C149.203 42.3192 147.227 44.3228 147.227 46.7943C147.227 49.2658 149.203 51.2693 151.641 51.2693Z" fill="black"/>
<path d="M159.098 24.0015V7.95104C159.098 7.62088 158.831 7.35437 158.501 7.35437C158.171 7.35437 157.905 7.62088 157.905 7.95104V24.0015C157.905 24.3316 158.171 24.5981 158.501 24.5981C158.831 24.5981 159.098 24.3316 159.098 24.0015Z" fill="black"/>
<path d="M189.581 24.0015V39.9922C189.581 40.3224 189.847 40.5889 190.178 40.5889C190.508 40.5889 190.774 40.3224 190.774 39.9922V24.0015C190.774 23.6713 190.508 23.4048 190.178 23.4048C189.847 23.4048 189.581 23.6713 189.581 24.0015Z" fill="black"/>
<path d="M189.581 -8.03971V7.95105C189.581 8.2812 189.847 8.54772 190.178 8.54772C190.508 8.54772 190.774 8.2812 190.774 7.95105V-8.03971C190.774 -8.36987 190.508 -8.63638 190.178 -8.63638C189.847 -8.63638 189.581 -8.36987 189.581 -8.03971Z" fill="black"/>
<path d="M205.389 -8.03971V39.9922C205.389 40.3224 205.656 40.5889 205.986 40.5889C206.316 40.5889 206.582 40.3224 206.582 39.9922V-8.03971C206.582 -8.36987 206.316 -8.63638 205.986 -8.63638C205.656 -8.63638 205.389 -8.36987 205.389 -8.03971Z" fill="black"/>
<path d="M205.986 7.35437H190.178C189.847 7.35437 189.581 7.62088 189.581 7.95104C189.581 8.2812 189.847 8.54771 190.178 8.54771H205.986C206.316 8.54771 206.582 8.2812 206.582 7.95104C206.582 7.62088 206.316 7.35437 205.986 7.35437Z" fill="black"/>
<path d="M174.369 23.4048H158.501C158.171 23.4048 157.905 23.6713 157.905 24.0015C157.905 24.3316 158.171 24.5982 158.501 24.5982H174.369C174.699 24.5982 174.966 24.3316 174.966 24.0015C174.966 23.6713 174.699 23.4048 174.369 23.4048Z" fill="black"/>
<path d="M205.986 23.4048H190.178C189.847 23.4048 189.581 23.6713 189.581 24.0015C189.581 24.3316 189.847 24.5982 190.178 24.5982H205.986C206.316 24.5982 206.582 24.3316 206.582 24.0015C206.582 23.6713 206.316 23.4048 205.986 23.4048Z" fill="black"/>
<path d="M205.986 39.3956H174.369C174.039 39.3956 173.773 39.6621 173.773 39.9923C173.773 40.3224 174.039 40.5889 174.369 40.5889H205.986C206.316 40.5889 206.582 40.3224 206.582 39.9923C206.582 39.6621 206.316 39.3956 205.986 39.3956Z" fill="black"/>
<path d="M190.178 7.95104V7.35437H173.773V24.5385H190.774V7.35437H190.178V7.95104H189.581V23.3451H174.966V8.54771H190.178V7.95104H189.581H190.178Z" fill="black"/>
<path d="M174.31 -8.03971V-8.63638H157.905V8.54772H174.906V-8.63638H174.31V-8.03971H173.713V7.35438H159.098V-7.44304H174.31V-8.03971H173.713H174.31Z" fill="black"/>
<path d="M174.369 24.0015V23.4048H128.853C128.696 23.4048 128.543 23.4685 128.431 23.5798C128.32 23.6912 128.256 23.8444 128.256 24.0015V69.5274C128.256 69.6845 128.32 69.8377 128.431 69.9491C128.543 70.0604 128.696 70.1241 128.853 70.1241H174.369C174.526 70.1241 174.679 70.0604 174.791 69.9491C174.902 69.8377 174.966 69.6845 174.966 69.5274V24.0015C174.966 23.8444 174.902 23.6912 174.791 23.5798C174.679 23.4685 174.526 23.4048 174.369 23.4048V24.0015H173.773V68.9307H129.449V24.5982H174.369V24.0015Z" fill="black"/>
<path d="M149.098 37.8065C148.402 37.9974 147.74 38.2579 147.135 38.6617C146.861 38.8447 146.787 39.2146 146.97 39.4891C147.153 39.7635 147.523 39.8371 147.797 39.6541C148.264 39.3419 148.797 39.1251 149.414 38.958C149.732 38.8705 149.919 38.5423 149.831 38.2261C149.744 37.9079 149.416 37.7209 149.1 37.8084L149.098 37.8065Z" fill="black"/>
<path d="M160.508 44.2505C160.319 43.5623 160.066 42.8503 159.652 42.2278C159.47 41.9533 159.1 41.8797 158.825 42.0627C158.551 42.2457 158.477 42.6156 158.66 42.8901C158.962 43.3416 159.187 43.9422 159.356 44.5667C159.444 44.885 159.772 45.0719 160.088 44.9844C160.406 44.8969 160.593 44.5687 160.506 44.2525L160.508 44.2505Z" fill="black"/>
<path d="M155.546 53.9344C155.079 54.2467 154.554 54.4595 153.884 54.6286C153.564 54.7081 153.371 55.0323 153.45 55.3525C153.53 55.6727 153.854 55.8657 154.174 55.7861C154.934 55.5972 155.604 55.3326 156.21 54.9289C156.485 54.7459 156.558 54.376 156.375 54.1015C156.193 53.827 155.823 53.7535 155.548 53.9364L155.546 53.9344Z" fill="black"/>
<path d="M144.562 50.7005C144.25 50.2331 144.037 49.708 143.868 49.0378C143.788 48.7176 143.464 48.5246 143.144 48.6042C142.824 48.6838 142.631 49.008 142.711 49.3282C142.9 50.0879 143.164 50.7582 143.568 51.3648C143.751 51.6393 144.121 51.7129 144.395 51.5299C144.669 51.3469 144.743 50.977 144.56 50.7025L144.562 50.7005Z" fill="black"/>
<path d="M143.568 42.1681C143.355 42.4883 143.192 42.8364 143.055 43.1824C142.917 43.5285 142.81 43.8726 142.717 44.1769C142.621 44.4931 142.8 44.8253 143.116 44.9207C143.432 45.0162 143.765 44.8372 143.86 44.521C143.947 44.2306 144.047 43.9163 144.164 43.622C144.282 43.3256 144.415 43.0492 144.56 42.8304C144.743 42.5559 144.669 42.186 144.395 42.003C144.12 41.82 143.751 41.8936 143.568 42.1681Z" fill="black"/>
<path d="M149.412 54.6325C148.829 54.4734 148.274 54.201 147.755 53.9106C147.467 53.7515 147.105 53.8549 146.944 54.1433C146.785 54.4317 146.888 54.7937 147.177 54.9548C147.73 55.261 148.37 55.5852 149.1 55.7841C149.418 55.8716 149.746 55.6827 149.831 55.3665C149.919 55.0482 149.73 54.7201 149.414 54.6345L149.412 54.6325Z" fill="black"/>
<path d="M159.358 49.0238C159.191 49.6404 158.974 50.1714 158.662 50.6408C158.479 50.9153 158.553 51.2852 158.827 51.4682C159.102 51.6512 159.472 51.5776 159.654 51.3031C160.058 50.6965 160.319 50.0362 160.51 49.3401C160.597 49.0218 160.408 48.6937 160.092 48.6081C159.774 48.5206 159.446 48.7096 159.36 49.0258L159.358 49.0238Z" fill="black"/>
<path d="M156.206 38.6C155.6 38.1963 154.932 37.9317 154.17 37.7428C153.85 37.6632 153.526 37.8581 153.446 38.1764C153.367 38.4966 153.562 38.8208 153.88 38.9003C154.552 39.0694 155.075 39.2822 155.542 39.5945C155.817 39.7774 156.187 39.7038 156.37 39.4294C156.552 39.1549 156.479 38.785 156.205 38.602L156.206 38.6Z" fill="black"/>
<path d="M149.849 38.425L150.106 34.9802H153.166L153.369 38.3395V38.3812C153.369 38.7114 153.635 38.9779 153.965 38.9779C154.296 38.9779 154.562 38.7114 154.562 38.3812V38.2858L154.321 34.3477C154.302 34.0335 154.041 33.7869 153.727 33.7869H149.551C149.239 33.7869 148.978 34.0295 148.956 34.3398L148.658 38.3375C148.634 38.6656 148.881 38.952 149.209 38.9779C149.537 39.0018 149.823 38.7551 149.847 38.427L149.849 38.425Z" fill="black"/>
<path d="M144.516 42.1084L142.311 39.5447L144.51 37.345L147.073 39.5507C147.324 39.7655 147.7 39.7376 147.914 39.487C148.129 39.2364 148.101 38.8605 147.851 38.6457L144.868 36.0801C144.632 35.8772 144.278 35.8911 144.057 36.1099L141.074 39.0932C140.853 39.314 140.841 39.668 141.044 39.9047L143.609 42.8881C143.824 43.1387 144.2 43.1665 144.451 42.9517C144.701 42.7369 144.729 42.361 144.514 42.1104L144.516 42.1084Z" fill="black"/>
<path d="M143.335 48.5863L140.008 48.3297V45.2588L143.335 45.0023C143.663 44.9764 143.91 44.69 143.884 44.3618C143.858 44.0337 143.572 43.787 143.244 43.8129L139.366 44.1112C139.056 44.1351 138.815 44.3956 138.815 44.7059V48.8826C138.815 49.1949 139.056 49.4534 139.366 49.4773L143.244 49.7756C143.572 49.8015 143.858 49.5549 143.884 49.2267C143.91 48.8985 143.663 48.6121 143.335 48.5863Z" fill="black"/>
<path d="M143.613 50.6408L141.048 53.6241C140.846 53.8588 140.857 54.2089 141.074 54.4316L144.057 57.4747C144.28 57.7014 144.64 57.7133 144.876 57.5045L147.859 54.8791C148.105 54.6624 148.129 54.2845 147.913 54.0378C147.696 53.7912 147.318 53.7673 147.071 53.9841L144.512 56.2356L142.309 53.9881L144.516 51.4204C144.731 51.1698 144.703 50.7939 144.453 50.5791C144.202 50.3643 143.826 50.3922 143.611 50.6428L143.613 50.6408Z" fill="black"/>
<path d="M148.66 55.2531L148.958 59.1911C148.982 59.5014 149.243 59.742 149.553 59.742H153.729C154.043 59.742 154.305 59.4954 154.323 59.1812L154.562 55.2431C154.582 54.915 154.331 54.6305 154.003 54.6107C153.675 54.5908 153.391 54.8414 153.371 55.1695L153.166 58.5467H150.106L149.849 55.1596C149.823 54.8314 149.537 54.5848 149.209 54.6107C148.881 54.6365 148.634 54.9229 148.66 55.2511V55.2531Z" fill="black"/>
<path d="M158.766 51.4204L160.977 53.9921L158.825 56.2316L156.272 53.9841C156.026 53.7673 155.648 53.7912 155.431 54.0378C155.214 54.2845 155.238 54.6624 155.485 54.8791L158.467 57.5045C158.706 57.7153 159.072 57.6994 159.293 57.4707L162.216 54.4277C162.428 54.2049 162.438 53.8588 162.238 53.6261L159.672 50.6428C159.458 50.3922 159.082 50.3643 158.831 50.5791C158.581 50.7939 158.553 51.1698 158.768 51.4204H158.766Z" fill="black"/>
<path d="M159.887 45.0023L163.274 45.2588V48.3297L159.887 48.5863C159.559 48.6121 159.312 48.8985 159.338 49.2267C159.364 49.5549 159.651 49.8015 159.979 49.7756L163.916 49.4773C164.226 49.4534 164.467 49.1929 164.467 48.8826V44.7059C164.467 44.3937 164.226 44.1351 163.916 44.1112L159.979 43.8129C159.651 43.787 159.364 44.0337 159.338 44.3618C159.312 44.69 159.559 44.9764 159.887 45.0023Z" fill="black"/>
<path d="M156.266 39.5487L158.825 37.347L160.973 39.5388L158.766 42.1064C158.551 42.357 158.579 42.7329 158.829 42.9477C159.08 43.1625 159.456 43.1347 159.67 42.8841L162.236 39.9007C162.438 39.666 162.426 39.316 162.21 39.0932L159.287 36.1099C159.066 35.8851 158.71 35.8692 158.471 36.0761L155.489 38.6418C155.238 38.8566 155.21 39.2325 155.425 39.4831C155.64 39.7337 156.016 39.7615 156.266 39.5467V39.5487Z" fill="black"/>
<path d="M192.743 46.6153V63.1431C192.743 63.4732 193.009 63.7397 193.339 63.7397C193.669 63.7397 193.936 63.4732 193.936 63.1431V46.6153C193.936 46.2852 193.669 46.0186 193.339 46.0186C193.009 46.0186 192.743 46.2852 192.743 46.6153Z" fill="black"/>
<path d="M201.571 54.193H184.988C184.658 54.193 184.391 54.4595 184.391 54.7897C184.391 55.1199 184.658 55.3864 184.988 55.3864H201.571C201.902 55.3864 202.168 55.1199 202.168 54.7897C202.168 54.4595 201.902 54.193 201.571 54.193Z" fill="black"/>
<path d="M187.012 49.4236L192.798 55.2113L192.858 55.271L192.918 55.3306L198.704 61.1183C198.937 61.351 199.315 61.351 199.547 61.1183C199.78 60.8856 199.78 60.5078 199.547 60.2751L193.761 54.4874L193.701 54.4277L193.641 54.368L187.855 48.5803C187.622 48.3476 187.245 48.3476 187.012 48.5803C186.779 48.813 186.779 49.1909 187.012 49.4236Z" fill="black"/>
<path d="M198.704 48.5803L192.918 54.368L192.858 54.4277L187.012 60.2751C186.779 60.5078 186.779 60.8856 187.012 61.1183C187.245 61.351 187.622 61.351 187.855 61.1183L193.701 55.271L193.761 55.2113L199.547 49.4236C199.78 49.1909 199.78 48.813 199.547 48.5803C199.315 48.3476 198.937 48.3476 198.704 48.5803Z" fill="black"/>
<path d="M141.261 7.95104V16.2448C141.261 16.5749 141.528 16.8414 141.858 16.8414C142.188 16.8414 142.454 16.5749 142.454 16.2448V7.95104C142.454 7.62088 142.188 7.35437 141.858 7.35437C141.528 7.35437 141.261 7.62088 141.261 7.95104Z" fill="black"/>
<path d="M141.261 -0.282999V7.95105C141.261 8.28121 141.528 8.54772 141.858 8.54772C142.188 8.54772 142.454 8.28121 142.454 7.95105V-0.282999C142.454 -0.613157 142.188 -0.879669 141.858 -0.879669C141.528 -0.879669 141.261 -0.613157 141.261 -0.282999Z" fill="black"/>
<path d="M141.858 7.35437H133.506C133.176 7.35437 132.909 7.62088 132.909 7.95104C132.909 8.2812 133.176 8.54771 133.506 8.54771H141.858C142.188 8.54771 142.454 8.2812 142.454 7.95104C142.454 7.62088 142.188 7.35437 141.858 7.35437Z" fill="black"/>
<path d="M150.03 7.35437H141.858C141.528 7.35437 141.261 7.62088 141.261 7.95104C141.261 8.2812 141.528 8.54771 141.858 8.54771H150.03C150.36 8.54771 150.627 8.2812 150.627 7.95104C150.627 7.62088 150.36 7.35437 150.03 7.35437Z" fill="black"/>
<path d="M135.53 2.58499L141.317 8.37269L141.376 8.43236L141.436 8.49202H141.434L147.161 14.2777C147.394 14.5124 147.769 14.5144 148.004 14.2817C148.239 14.049 148.241 13.6711 148.008 13.4384L142.281 7.65072H142.279L142.22 7.58907L142.16 7.5294L136.373 1.7417C136.141 1.50899 135.763 1.50899 135.53 1.7417C135.298 1.9744 135.298 2.35229 135.53 2.58499Z" fill="black"/>
<path d="M147.161 1.74371L141.434 7.5314H141.436L141.376 7.58908L135.53 13.4364C135.298 13.6692 135.298 14.047 135.53 14.2797C135.763 14.5124 136.141 14.5124 136.373 14.2797L142.22 8.43238L142.279 8.37271H142.281L148.008 2.58302C148.241 2.34833 148.239 1.97044 148.004 1.73973C147.769 1.50703 147.392 1.50901 147.161 1.74371Z" fill="black"/>
<path d="M377.551 56.9973V112.368C377.551 113.681 376.477 114.755 375.165 114.755H336.986C335.674 114.755 334.6 113.681 334.6 112.368V84.7425H354.405C355.718 84.7425 356.792 83.6685 356.792 82.3558V65.8877C356.792 64.575 355.718 63.501 354.405 63.501H334.6V56.9973C334.6 55.6847 335.674 54.6107 336.986 54.6107H375.165C376.477 54.6107 377.551 55.6847 377.551 56.9973Z" fill="#ED489E"/>
<path d="M334.66 63.501H354.465C355.778 63.501 356.851 64.575 356.851 65.8877V82.2961C356.851 83.6088 355.778 84.6828 354.465 84.6828H329.888C328.575 84.6828 327.501 83.6088 327.501 82.2961V65.8877C327.501 64.575 328.575 63.501 329.888 63.501H334.66ZM351.661 74.5394C351.9 74.3008 351.9 73.9428 351.661 73.7041L348.142 70.1837C347.903 69.9451 347.545 69.9451 347.307 70.1837C347.068 70.4224 347.068 70.7804 347.307 71.0191L350.409 74.1218L347.307 77.2244C347.068 77.4631 347.068 77.8211 347.307 78.0598C347.426 78.1791 347.605 78.2388 347.724 78.2388C347.844 78.2388 348.023 78.1791 348.142 78.0598L351.661 74.5394ZM344.92 68.5727C345.04 68.2744 344.861 67.9164 344.563 67.7971C344.264 67.6777 343.906 67.8567 343.787 68.1551L339.373 79.6708C339.253 79.9691 339.432 80.3271 339.731 80.4465C339.79 80.5061 339.85 80.5061 339.969 80.5061C340.208 80.5061 340.446 80.3868 340.506 80.1481L344.92 68.5727ZM337.046 78.0598C337.285 77.8211 337.285 77.4631 337.046 77.2244L333.944 74.1218L337.046 71.0191C337.285 70.7804 337.285 70.4224 337.046 70.1837C336.808 69.9451 336.45 69.9451 336.211 70.1837L332.691 73.7041C332.572 73.8234 332.512 73.9428 332.512 74.1218C332.512 74.3008 332.572 74.4201 332.691 74.5394L336.271 78.0598C336.39 78.1791 336.569 78.2388 336.688 78.2388C336.748 78.2388 336.927 78.1791 337.046 78.0598Z" fill="black"/>
<path d="M335.257 63.501V56.9973C335.257 56.5061 335.457 56.0606 335.784 55.7344C336.11 55.4082 336.555 55.2073 337.046 55.2073H375.225C375.716 55.2073 376.161 55.4082 376.488 55.7344C376.814 56.0606 377.014 56.5061 377.014 56.9973V112.368C377.014 112.86 376.814 113.305 376.488 113.631C376.161 113.957 375.716 114.158 375.225 114.158H337.046C336.555 114.158 336.11 113.957 335.784 113.631C335.457 113.305 335.257 112.86 335.257 112.368V84.7425C335.257 84.4123 334.99 84.1458 334.66 84.1458C334.33 84.1458 334.063 84.4123 334.063 84.7425V112.368C334.063 113.19 334.4 113.938 334.938 114.477C335.477 115.016 336.225 115.352 337.046 115.352H375.225C376.046 115.352 376.794 115.016 377.333 114.477C377.872 113.938 378.208 113.19 378.208 112.368V56.9973C378.208 56.1759 377.872 55.4281 377.333 54.8891C376.794 54.3501 376.046 54.014 375.225 54.014H337.046C336.225 54.014 335.477 54.3501 334.938 54.8891C334.4 55.4281 334.063 56.1759 334.063 56.9973V63.501C334.063 63.8312 334.33 64.0977 334.66 64.0977C334.99 64.0977 335.257 63.8312 335.257 63.501Z" fill="black"/>
<path d="M341.699 108.43H353.57C353.9 108.43 354.167 108.164 354.167 107.834C354.167 107.504 353.9 107.237 353.57 107.237H341.699C341.369 107.237 341.103 107.504 341.103 107.834C341.103 108.164 341.369 108.43 341.699 108.43Z" fill="black"/>
<path d="M359.118 100.853H365.621C365.951 100.853 366.217 100.586 366.217 100.256C366.217 99.9258 365.951 99.6592 365.621 99.6592H359.118C358.788 99.6592 358.522 99.9258 358.522 100.256C358.522 100.586 358.788 100.853 359.118 100.853Z" fill="black"/>
<path d="M341.699 100.853H352.496C352.827 100.853 353.093 100.586 353.093 100.256C353.093 99.9258 352.827 99.6592 352.496 99.6592H341.699C341.369 99.6592 341.103 99.9258 341.103 100.256C341.103 100.586 341.369 100.853 341.699 100.853Z" fill="black"/>
<path d="M356.851 93.2152H361.206C361.536 93.2152 361.803 92.9487 361.803 92.6185C361.803 92.2884 361.536 92.0219 361.206 92.0219H356.851C356.521 92.0219 356.255 92.2884 356.255 92.6185C356.255 92.9487 356.521 93.2152 356.851 93.2152Z" fill="black"/>
<path d="M341.699 93.2152H352.496C352.827 93.2152 353.093 92.9487 353.093 92.6185C353.093 92.2884 352.827 92.0219 352.496 92.0219H341.699C341.369 92.0219 341.103 92.2884 341.103 92.6185C341.103 92.9487 341.369 93.2152 341.699 93.2152Z" fill="black"/>
</svg>
